<!-- Generator: Adobe Illustrator 22.0.0, SVG Export Plug-In  -->
<svg version="1.1"
	 xmlns="http://www.w3.org/2000/svg" xmlns:xlink="http://www.w3.org/1999/xlink" xmlns:a="http://ns.adobe.com/AdobeSVGViewerExtensions/3.0/"
	 x="0px" y="0px" width="61.063px" height="58.591px" viewBox="0 0 61.063 58.591"
	 style="enable-background:new 0 0 61.063 58.591;" xml:space="preserve">
<style type="text/css">
	.st0{fill:#317FE4;}
	.st1{fill:#FFFFFF;}
</style>
<defs>
</defs>
<path class="st0" d="M43.932,55.182H17.131c-3.343,0-6.077-2.735-6.077-6.077V28.069c0-3.343,2.735-6.077,6.077-6.077h26.801
	c3.343,0,6.077,2.735,6.077,6.077v21.036C50.009,52.447,47.274,55.182,43.932,55.182z"/>
<path class="st0" d="M60.018,22.464L32.814,0.773c-1.294-1.032-3.33-1.031-4.623,0.002L1.042,22.465
	c-2.183,1.744-0.707,4.824,2.313,4.824h54.353C60.729,27.289,62.205,24.207,60.018,22.464z"/>
<path class="st1" d="M33.031,34.924h-5c-3.117,0-5.667,2.55-5.667,5.667v12.333c0,3.117,2.55,5.667,5.667,5.667h5
	c3.117,0,5.667-2.55,5.667-5.667V40.591C38.698,37.474,36.148,34.924,33.031,34.924z"/>
</svg>