<!-- Generator: Adobe Illustrator 22.0.0, SVG Export Plug-In  -->
<svg version="1.1"
	 xmlns="http://www.w3.org/2000/svg" xmlns:xlink="http://www.w3.org/1999/xlink" xmlns:a="http://ns.adobe.com/AdobeSVGViewerExtensions/3.0/"
	 x="0px" y="0px" width="91px" height="91px" viewBox="0 0 91 91" style="enable-background:new 0 0 91 91;" xml:space="preserve">
<style type="text/css">
	.st0{fill:#317FE4;}
	.st1{fill:#FFFFFF;}
</style>
<defs>
</defs>
<g>
	<path class="st0" d="M70.38,91H20.62C9.279,91,0,81.721,0,70.38V20.62C0,9.279,9.279,0,20.62,0H70.38C81.721,0,91,9.279,91,20.62
		V70.38C91,81.721,81.721,91,70.38,91z"/>
	<path class="st1" d="M58.901,71.392H32.099c-3.343,0-6.077-2.735-6.077-6.077V44.279c0-3.343,2.735-6.077,6.077-6.077h26.801
		c3.343,0,6.077,2.735,6.077,6.077v21.036C64.978,68.658,62.243,71.392,58.901,71.392z"/>
	<path class="st1" d="M74.987,38.674l-27.204-21.69c-1.294-1.032-3.33-1.031-4.623,0.002l-27.149,21.69
		c-2.183,1.744-0.707,4.824,2.313,4.824h54.353C75.698,43.5,77.174,40.418,74.987,38.674z"/>
	<path class="st0" d="M48,51.135h-5c-3.117,0-5.667,2.55-5.667,5.667v12.333c0,3.117,2.55,5.667,5.667,5.667h5
		c3.117,0,5.667-2.55,5.667-5.667V56.802C53.667,53.685,51.117,51.135,48,51.135z"/>
</g>
</svg>